<svg xmlns="http://www.w3.org/2000/svg" xmlns:xlink="http://www.w3.org/1999/xlink" width="388" zoomAndPan="magnify" viewBox="0 0 291 266.999984" height="356" preserveAspectRatio="xMidYMid meet" version="1.0"><defs><filter x="0%" y="0%" width="100%" height="100%" id="ec798f323a"><feColorMatrix values="0 0 0 0 1 0 0 0 0 1 0 0 0 0 1 0 0 0 1 0" color-interpolation-filters="sRGB"/></filter><g/><clipPath id="cc0ad0b866"><path d="M 0 0 L 290.851562 0 L 290.851562 267 L 0 267 Z M 0 0 " clip-rule="nonzero"/></clipPath><mask id="21a4243969"><g filter="url(#ec798f323a)"><rect x="-29.1" width="349.2" fill="#000000" y="-26.699998" height="320.399981" fill-opacity="0.67"/></g></mask><clipPath id="fcd6b3e92d"><path d="M 0.480469 0.121094 L 254.878906 0.121094 L 254.878906 167.132812 L 0.480469 167.132812 Z M 0.480469 0.121094 " clip-rule="nonzero"/></clipPath><clipPath id="f3e8cf48d7"><rect x="0" width="255" y="0" height="168"/></clipPath></defs><rect x="-29.1" width="349.2" fill="#ffffff" y="-26.699998" height="320.399981" fill-opacity="1"/><g clip-path="url(#cc0ad0b866)"><path fill="#011e5a" d="M 0 0 L 290.988281 0 L 290.988281 267 L 0 267 Z M 0 0 " fill-opacity="1" fill-rule="nonzero"/></g><g mask="url(#21a4243969)"><g transform="matrix(1, 0, 0, 1, 18, 45)"><g clip-path="url(#f3e8cf48d7)"><g clip-path="url(#fcd6b3e92d)"><path fill="#ffffff" d="M 88.984375 7.65625 C 39.355469 24.992188 2.894531 71.257812 0.6875 126.96875 C 0.132812 140.960938 1.789062 154.527344 5.328125 167.335938 L 5.746094 167.191406 C 2.253906 154.570312 0.660156 141.1875 1.277344 127.378906 C 1.414062 124.371094 1.65625 121.394531 1.992188 118.445312 C 12.167969 120.082031 22.519531 121.128906 33.015625 121.582031 C 33.976562 133.265625 36.160156 144.738281 39.378906 155.765625 L 39.683594 155.660156 C 36.46875 144.683594 34.335938 133.257812 33.449219 121.605469 C 42.058594 121.960938 50.769531 121.917969 59.546875 121.4375 C 65.421875 121.117188 71.230469 120.605469 76.992188 119.917969 C 78.679688 127.023438 80.625 134.070312 82.800781 141.011719 L 82.972656 140.953125 C 80.800781 134.027344 78.863281 126.984375 77.1875 119.890625 C 95.296875 117.71875 112.8125 113.761719 129.5625 108.210938 L 138.386719 133.269531 L 129.980469 108.070312 C 146.328125 102.621094 161.949219 95.660156 176.6875 87.351562 C 179.445312 93.542969 182.042969 99.933594 184.4375 106.476562 L 184.613281 106.417969 C 182.210938 99.863281 179.613281 93.460938 176.859375 87.253906 C 188.722656 80.550781 200.015625 72.980469 210.648438 64.628906 C 216.136719 73.390625 220.886719 82.839844 224.75 92.777344 L 225.074219 92.667969 C 221.191406 82.6875 216.449219 73.1875 210.984375 64.359375 C 218.179688 58.6875 225.078125 52.65625 231.648438 46.296875 C 241.117188 57.039062 248.792969 69.34375 254.238281 82.757812 L 254.667969 82.613281 C 235.78125 36.125 191.0625 2.535156 137.660156 0.425781 C 124.226562 -0.109375 111.183594 1.394531 98.824219 4.648438 C 97.765625 4.898438 96.71875 5.175781 95.675781 5.472656 C 94.871094 5.664062 94.078125 5.90625 93.308594 6.1875 C 93.246094 6.207031 93.1875 6.238281 93.125 6.261719 C 92.574219 6.441406 92.019531 6.617188 91.476562 6.808594 C 91.367188 6.847656 91.261719 6.890625 91.15625 6.929688 C 90.429688 7.167969 89.703125 7.402344 88.984375 7.65625 Z M 93.371094 8.46875 C 93.6875 8.367188 94 8.269531 94.316406 8.171875 L 99.644531 23.273438 C 91.789062 25.804688 83.871094 27.757812 75.941406 29.167969 C 79.886719 18.625 85.820312 11.472656 93.371094 8.46875 Z M 96.414062 7.535156 C 96.609375 7.480469 96.804688 7.433594 96.996094 7.378906 C 102.457031 6.226562 108.632812 7.035156 115.429688 10.074219 C 117.839844 11.152344 120.261719 12.488281 122.6875 14.046875 C 116.175781 17.191406 109.410156 19.980469 102.398438 22.363281 C 102.089844 22.46875 101.777344 22.5625 101.46875 22.667969 L 96.417969 7.535156 Z M 84.332031 12.121094 C 80.273438 16.265625 76.984375 22.097656 74.574219 29.398438 C 69.539062 30.253906 64.492188 30.886719 59.460938 31.304688 C 66.617188 23.171875 75 16.671875 84.332031 12.121094 Z M 106.359375 5.371094 C 113.582031 4.347656 121.144531 4.347656 128.96875 5.472656 C 131.378906 5.820312 133.773438 6.277344 136.148438 6.820312 C 132.195312 9.167969 128.128906 11.378906 123.953125 13.433594 C 120.917969 11.3125 117.875 9.546875 114.863281 8.171875 C 111.910156 6.824219 109.070312 5.898438 106.359375 5.371094 Z M 71.320312 17.691406 C 66.121094 21.617188 61.328125 26.242188 57.03125 31.496094 C 54.640625 31.660156 52.261719 31.773438 49.882812 31.84375 C 56.53125 26.46875 63.710938 21.722656 71.320312 17.691406 Z M 121.550781 2.824219 C 127 2.335938 132.535156 2.164062 138.136719 2.359375 C 139.734375 2.414062 141.324219 2.503906 142.902344 2.613281 C 141.355469 3.628906 139.789062 4.625 138.203125 5.59375 C 134.984375 4.734375 131.726562 4.050781 128.445312 3.558594 C 126.125 3.207031 123.824219 2.972656 121.550781 2.824219 Z M 47.800781 33.558594 C 50.40625 33.515625 53.019531 33.417969 55.636719 33.261719 C 50.738281 39.558594 46.507812 46.695312 43.050781 54.550781 C 38.207031 54.371094 33.390625 54.011719 28.609375 53.484375 C 34.292969 46.195312 40.730469 39.511719 47.800781 33.558594 Z M 145.640625 2.832031 C 156.566406 3.824219 167.0625 6.125 176.996094 9.582031 C 173.464844 12.476562 169.828125 15.269531 166.089844 17.929688 C 157.90625 12.804688 149.300781 8.824219 140.414062 6.210938 C 142.175781 5.113281 143.921875 3.988281 145.640625 2.832031 Z M 57.902344 33.125 C 57.90625 33.121094 57.914062 33.121094 57.914062 33.121094 C 63.269531 32.730469 68.636719 32.089844 74.007812 31.207031 C 72.058594 37.6875 70.757812 45.238281 70.175781 53.710938 C 61.527344 54.566406 52.921875 54.855469 44.410156 54.59375 C 48.121094 46.621094 52.65625 39.417969 57.902344 33.125 Z M 138.496094 7.394531 C 147.703125 9.765625 156.617188 13.585938 165.078125 18.648438 C 158.199219 23.472656 150.980469 27.871094 143.449219 31.828125 C 137.5625 24.855469 131.53125 19.011719 125.492188 14.550781 C 129.953125 12.332031 134.292969 9.941406 138.496094 7.394531 Z M 75.300781 30.984375 C 83.617188 29.554688 91.929688 27.519531 100.1875 24.855469 L 107.757812 46.34375 C 101.644531 48.160156 95.394531 49.710938 89.003906 50.960938 C 82.945312 52.144531 76.886719 53.027344 70.859375 53.648438 C 71.589844 45.035156 73.101562 37.433594 75.300781 30.984375 Z M 124.3125 15.121094 C 130.542969 19.386719 136.773438 25.160156 142.859375 32.144531 C 132.234375 37.679688 120.996094 42.300781 109.210938 45.902344 L 101.988281 24.257812 C 102.292969 24.15625 102.601562 24.0625 102.90625 23.957031 C 110.320312 21.4375 117.457031 18.472656 124.3125 15.121094 Z M 27.960938 54.324219 C 32.835938 54.839844 37.753906 55.167969 42.703125 55.328125 C 38.695312 64.628906 35.78125 74.921875 34.105469 85.996094 C 26.335938 85.578125 18.632812 84.761719 11.019531 83.574219 C 15.390625 73.054688 21.117188 63.246094 27.960938 54.324219 Z M 177.785156 9.855469 C 187.328125 13.246094 196.328125 17.707031 204.65625 23.078125 C 199.722656 27.792969 194.558594 32.292969 189.1875 36.570312 C 182.1875 29.503906 174.625 23.347656 166.644531 18.28125 C 170.460938 15.59375 174.179688 12.789062 177.785156 9.855469 Z M 44.046875 55.363281 C 52.664062 55.582031 61.371094 55.257812 70.128906 54.347656 C 69.539062 63.554688 69.785156 73.832031 70.941406 85.011719 C 58.828125 86.316406 46.773438 86.640625 34.855469 86.039062 C 36.6875 74.933594 39.8125 64.636719 44.046875 55.363281 Z M 165.644531 18.984375 C 173.789062 23.921875 181.492188 30.003906 188.621094 37.023438 C 179.828125 43.980469 170.488281 50.332031 160.621094 55.988281 C 155.253906 47.160156 149.597656 39.152344 143.796875 32.238281 C 151.402344 28.265625 158.6875 23.828125 165.644531 18.984375 Z M 70.8125 54.269531 C 76.664062 53.644531 82.535156 52.773438 88.417969 51.625 C 95.070312 50.324219 101.570312 48.707031 107.929688 46.804688 L 117.84375 74.957031 C 112.65625 76.648438 107.371094 78.167969 101.988281 79.503906 C 91.761719 82.046875 81.507812 83.851562 71.300781 84.964844 C 70.21875 73.742188 70.078125 63.445312 70.8125 54.269531 Z M 143.214844 32.539062 C 149.113281 39.363281 154.867188 47.332031 160.3125 56.15625 C 147.335938 63.570312 133.464844 69.796875 118.808594 74.640625 L 109.371094 46.367188 C 121.207031 42.730469 132.519531 38.085938 143.214844 32.539062 Z M 10.558594 84.726562 C 18.273438 85.875 26.078125 86.652344 33.949219 87.019531 C 32.625 96.222656 32.15625 105.957031 32.652344 116.109375 C 32.726562 117.664062 32.828125 119.207031 32.949219 120.753906 C 22.515625 120.242188 12.21875 119.117188 2.101562 117.414062 C 3.5 105.988281 6.390625 95.027344 10.558594 84.726562 Z M 205.386719 23.542969 C 214.777344 29.6875 223.285156 37.007812 230.730469 45.277344 C 224.257812 51.644531 217.457031 57.679688 210.359375 63.367188 C 204.277344 53.699219 197.335938 44.847656 189.710938 37.078125 C 195.148438 32.789062 200.378906 28.269531 205.386719 23.542969 Z M 34.695312 87.046875 C 46.683594 87.566406 58.824219 87.15625 71.019531 85.769531 C 71.589844 91.082031 72.359375 96.589844 73.347656 102.28125 C 74.332031 107.953125 75.5 113.628906 76.832031 119.273438 C 71.417969 119.90625 65.949219 120.367188 60.433594 120.667969 C 51.332031 121.164062 42.316406 121.1875 33.394531 120.765625 C 33.292969 119.367188 33.199219 117.957031 33.136719 116.550781 C 32.675781 106.238281 33.234375 96.363281 34.695312 87.046875 Z M 189.144531 37.539062 C 196.863281 45.222656 203.894531 54.003906 210.023438 63.632812 C 199.476562 72.054688 188.277344 79.691406 176.492188 86.445312 C 171.714844 75.753906 166.476562 65.675781 160.917969 56.476562 C 170.847656 50.816406 180.277344 44.488281 189.144531 37.539062 Z M 71.367188 85.730469 C 81.335938 84.582031 91.339844 82.789062 101.339844 80.300781 C 107.007812 78.894531 112.566406 77.277344 118.023438 75.488281 L 129.332031 107.585938 C 112.621094 113.164062 95.128906 117.117188 77.027344 119.246094 C 75.75 113.773438 74.636719 108.273438 73.695312 102.769531 C 72.6875 96.882812 71.914062 91.199219 71.367188 85.730469 Z M 160.609375 56.648438 C 166.226562 65.792969 171.511719 75.855469 176.316406 86.542969 C 161.644531 94.933594 146.078125 101.964844 129.761719 107.441406 L 118.992188 75.171875 C 133.667969 70.289062 147.578125 64.054688 160.613281 56.648438 Z M 160.609375 56.648438 " fill-opacity="1" fill-rule="nonzero"/></g></g></g></g><g fill="#ffffff" fill-opacity="1"><g transform="translate(44.708207, 145.313742)"><g><path d="M 24.1875 -41.421875 C 28.164062 -41.421875 31.820312 -40.570312 35.15625 -38.875 C 38.5 -37.1875 41.15625 -34.726562 43.125 -31.5 C 45.09375 -28.28125 46.078125 -24.488281 46.078125 -20.125 C 46.078125 -16.226562 45.191406 -12.6875 43.421875 -9.5 C 41.648438 -6.3125 39.113281 -3.789062 35.8125 -1.9375 C 32.507812 -0.09375 28.65625 0.828125 24.25 0.828125 C 20 0.828125 16.222656 -0.0664062 12.921875 -1.859375 C 9.617188 -3.648438 7.039062 -6.132812 5.1875 -9.3125 C 3.34375 -12.5 2.421875 -16.160156 2.421875 -20.296875 C 2.421875 -24.347656 3.351562 -27.972656 5.21875 -31.171875 C 7.09375 -34.378906 9.679688 -36.890625 12.984375 -38.703125 C 16.285156 -40.515625 20.019531 -41.421875 24.1875 -41.421875 Z M 12.921875 -20.40625 C 12.921875 -17.257812 13.300781 -14.234375 14.0625 -11.328125 C 14.832031 -8.421875 16.050781 -6.007812 17.71875 -4.09375 C 19.394531 -2.1875 21.550781 -1.234375 24.1875 -1.234375 C 26.46875 -1.234375 28.460938 -1.988281 30.171875 -3.5 C 31.890625 -5.019531 33.21875 -7.1875 34.15625 -10 C 35.101562 -12.8125 35.578125 -16.109375 35.578125 -19.890625 C 35.578125 -23.972656 35.113281 -27.476562 34.1875 -30.40625 C 33.257812 -33.34375 31.941406 -35.566406 30.234375 -37.078125 C 28.523438 -38.597656 26.53125 -39.359375 24.25 -39.359375 C 22.164062 -39.359375 20.265625 -38.65625 18.546875 -37.25 C 16.835938 -35.851562 15.472656 -33.726562 14.453125 -30.875 C 13.429688 -28.03125 12.921875 -24.539062 12.921875 -20.40625 Z M 18.9375 -53.75 C 20 -53.75 20.894531 -53.382812 21.625 -52.65625 C 22.351562 -51.925781 22.71875 -51.03125 22.71875 -49.96875 C 22.71875 -48.90625 22.351562 -48 21.625 -47.25 C 20.894531 -46.507812 20 -46.140625 18.9375 -46.140625 C 17.875 -46.140625 16.96875 -46.507812 16.21875 -47.25 C 15.476562 -48 15.109375 -48.90625 15.109375 -49.96875 C 15.109375 -51.03125 15.476562 -51.925781 16.21875 -52.65625 C 16.96875 -53.382812 17.875 -53.75 18.9375 -53.75 Z M 29.734375 -53.75 C 30.796875 -53.75 31.691406 -53.382812 32.421875 -52.65625 C 33.148438 -51.925781 33.515625 -51.03125 33.515625 -49.96875 C 33.515625 -48.90625 33.148438 -48 32.421875 -47.25 C 31.691406 -46.507812 30.796875 -46.140625 29.734375 -46.140625 C 28.671875 -46.140625 27.765625 -46.507812 27.015625 -47.25 C 26.273438 -48 25.90625 -48.90625 25.90625 -49.96875 C 25.90625 -51.03125 26.273438 -51.925781 27.015625 -52.65625 C 27.765625 -53.382812 28.671875 -53.75 29.734375 -53.75 Z M 29.734375 -53.75 "/></g></g></g><g fill="#ffffff" fill-opacity="1"><g transform="translate(92.196746, 145.313742)"><g><path d="M 14.046875 -2.1875 L 25.015625 -2.1875 C 28.910156 -2.1875 32.097656 -3.175781 34.578125 -5.15625 C 37.054688 -7.144531 38.628906 -10.164062 39.296875 -14.21875 L 40.421875 -14.21875 L 39.171875 0 L 1.953125 0 L 26.375 -38.34375 L 18.109375 -38.34375 C 14.722656 -38.34375 12.054688 -37.578125 10.109375 -36.046875 C 8.171875 -34.515625 6.882812 -32.132812 6.25 -28.90625 L 5.3125 -28.90625 L 6.25 -40.53125 L 38.34375 -40.53125 Z M 14.046875 -2.1875 "/></g></g></g><g fill="#ffffff" fill-opacity="1"><g transform="translate(133.550096, 145.313742)"><g><path d="M 36.21875 -30.625 C 36.21875 -28.257812 35.390625 -26.269531 33.734375 -24.65625 C 32.085938 -23.050781 29.734375 -21.953125 26.671875 -21.359375 L 26.671875 -21.234375 C 30.128906 -20.722656 32.867188 -19.539062 34.890625 -17.6875 C 36.921875 -15.84375 37.9375 -13.585938 37.9375 -10.921875 C 37.9375 -8.640625 37.253906 -6.671875 35.890625 -5.015625 C 34.535156 -3.359375 32.726562 -2.109375 30.46875 -1.265625 C 28.207031 -0.421875 25.757812 0 23.125 0 L 0.890625 0 L 0.890625 -1.0625 C 2.335938 -1.0625 3.4375 -1.171875 4.1875 -1.390625 C 4.9375 -1.609375 5.5 -2.066406 5.875 -2.765625 C 6.25 -3.472656 6.4375 -4.597656 6.4375 -6.140625 L 6.4375 -34.34375 C 6.4375 -35.757812 6.265625 -36.828125 5.921875 -37.546875 C 5.585938 -38.273438 5.054688 -38.765625 4.328125 -39.015625 C 3.609375 -39.273438 2.578125 -39.425781 1.234375 -39.46875 L 1.234375 -40.53125 L 22.296875 -40.53125 C 24.421875 -40.53125 26.546875 -40.210938 28.671875 -39.578125 C 30.796875 -38.953125 32.582031 -37.898438 34.03125 -36.421875 C 35.488281 -34.953125 36.21875 -33.019531 36.21875 -30.625 Z M 17.46875 -22.125 C 20.6875 -22.125 22.960938 -22.9375 24.296875 -24.5625 C 25.640625 -26.195312 26.3125 -28.097656 26.3125 -30.265625 C 26.3125 -32.273438 25.722656 -34.125 24.546875 -35.8125 C 23.367188 -37.5 21.398438 -38.34375 18.640625 -38.34375 L 15.875 -38.34375 L 15.875 -22.125 Z M 19.296875 -2.0625 C 21.734375 -2.0625 23.695312 -2.828125 25.1875 -4.359375 C 26.6875 -5.898438 27.4375 -7.945312 27.4375 -10.5 C 27.4375 -13.175781 26.609375 -15.414062 24.953125 -17.21875 C 23.304688 -19.03125 20.710938 -19.9375 17.171875 -19.9375 L 15.875 -19.9375 L 15.875 -6.015625 C 15.875 -4.441406 16.144531 -3.390625 16.6875 -2.859375 C 17.238281 -2.328125 18.109375 -2.0625 19.296875 -2.0625 Z M 19.296875 -2.0625 "/></g></g></g><g fill="#ffffff" fill-opacity="1"><g transform="translate(171.835861, 145.313742)"><g><path d="M 35.21875 -28.96875 L 34.15625 -28.96875 C 33.601562 -32.039062 32.5 -34.367188 30.84375 -35.953125 C 29.195312 -37.546875 27.035156 -38.34375 24.359375 -38.34375 L 16.40625 -38.34375 L 16.40625 -21.765625 L 17.640625 -21.765625 C 19.140625 -21.765625 20.367188 -22 21.328125 -22.46875 C 22.296875 -22.945312 23.113281 -23.863281 23.78125 -25.21875 C 24.445312 -26.582031 24.9375 -28.519531 25.25 -31.03125 L 26.3125 -31.03125 L 26.3125 -10.4375 L 25.25 -10.4375 C 24.820312 -14.019531 23.988281 -16.441406 22.75 -17.703125 C 21.507812 -18.960938 19.882812 -19.59375 17.875 -19.59375 L 16.40625 -19.59375 L 16.40625 -6.546875 C 16.40625 -4.859375 16.660156 -3.707031 17.171875 -3.09375 C 17.679688 -2.488281 18.664062 -2.1875 20.125 -2.1875 L 24.359375 -2.1875 C 27.828125 -2.1875 30.539062 -3.117188 32.5 -4.984375 C 34.46875 -6.847656 35.96875 -9.359375 37 -12.515625 L 38.0625 -12.515625 L 36.21875 0 L 1.0625 0 L 1.0625 -1.0625 L 2.421875 -1.0625 C 3.796875 -1.0625 4.804688 -1.265625 5.453125 -1.671875 C 6.109375 -2.085938 6.523438 -2.628906 6.703125 -3.296875 C 6.878906 -3.972656 6.96875 -4.878906 6.96875 -6.015625 L 6.96875 -34.640625 C 6.96875 -36.566406 6.523438 -37.84375 5.640625 -38.46875 C 4.753906 -39.09375 3.226562 -39.425781 1.0625 -39.46875 L 1.0625 -40.53125 L 35.21875 -40.53125 Z M 35.21875 -28.96875 "/></g></g></g><g fill="#ffffff" fill-opacity="1"><g transform="translate(210.12162, 145.313742)"><g><path d="M 23.84375 -39.46875 C 21.832031 -39.425781 20.375 -39.316406 19.46875 -39.140625 C 18.5625 -38.960938 17.878906 -38.519531 17.421875 -37.8125 C 16.972656 -37.101562 16.75 -35.945312 16.75 -34.34375 L 16.75 -5.421875 C 16.75 -4.285156 17.035156 -3.460938 17.609375 -2.953125 C 18.179688 -2.441406 19.097656 -2.1875 20.359375 -2.1875 L 24.65625 -2.1875 C 27.96875 -2.1875 30.59375 -3.128906 32.53125 -5.015625 C 34.476562 -6.898438 35.925781 -9.832031 36.875 -13.8125 L 37.9375 -13.8125 L 36.515625 0 L 0.9375 0 L 0.9375 -1.0625 C 2.675781 -1.101562 3.976562 -1.25 4.84375 -1.5 C 5.707031 -1.757812 6.332031 -2.242188 6.71875 -2.953125 C 7.113281 -3.660156 7.3125 -4.738281 7.3125 -6.1875 L 7.3125 -34.34375 C 7.3125 -35.945312 7.082031 -37.101562 6.625 -37.8125 C 6.175781 -38.519531 5.550781 -38.960938 4.75 -39.140625 C 3.945312 -39.316406 2.675781 -39.425781 0.9375 -39.46875 L 0.9375 -40.53125 L 23.84375 -40.53125 Z M 23.84375 -39.46875 "/></g></g></g><g fill="#ffffff" fill-opacity="1"><g transform="translate(44.708207, 198.563737)"><g><path d="M 21.125 -39.46875 C 19.664062 -39.425781 18.539062 -39.25 17.75 -38.9375 C 16.96875 -38.625 16.425781 -38.113281 16.125 -37.40625 C 15.832031 -36.695312 15.6875 -35.691406 15.6875 -34.390625 L 15.6875 -22.65625 L 32.796875 -22.65625 L 32.796875 -34.34375 C 32.796875 -35.789062 32.628906 -36.878906 32.296875 -37.609375 C 31.960938 -38.335938 31.429688 -38.816406 30.703125 -39.046875 C 29.984375 -39.285156 28.929688 -39.425781 27.546875 -39.46875 L 27.546875 -40.53125 L 47.96875 -40.53125 L 47.96875 -39.46875 C 46.351562 -39.425781 45.148438 -39.273438 44.359375 -39.015625 C 43.578125 -38.765625 43.03125 -38.285156 42.71875 -37.578125 C 42.40625 -36.867188 42.25 -35.804688 42.25 -34.390625 L 42.25 -6.1875 C 42.25 -4.695312 42.429688 -3.585938 42.796875 -2.859375 C 43.171875 -2.128906 43.710938 -1.65625 44.421875 -1.4375 C 45.128906 -1.226562 46.15625 -1.101562 47.5 -1.0625 L 47.5 0 L 27.546875 0 L 27.546875 -1.0625 C 29.003906 -1.101562 30.097656 -1.238281 30.828125 -1.46875 C 31.554688 -1.707031 32.066406 -2.179688 32.359375 -2.890625 C 32.648438 -3.597656 32.796875 -4.660156 32.796875 -6.078125 L 32.796875 -20.125 L 15.6875 -20.125 L 15.6875 -6.140625 C 15.6875 -4.640625 15.875 -3.535156 16.25 -2.828125 C 16.625 -2.117188 17.175781 -1.65625 17.90625 -1.4375 C 18.632812 -1.226562 19.707031 -1.101562 21.125 -1.0625 L 21.125 0 L 1.71875 0 L 1.71875 -1.0625 C 3.445312 -1.0625 4.632812 -1.441406 5.28125 -2.203125 C 5.925781 -2.972656 6.25 -4.300781 6.25 -6.1875 L 6.25 -34.34375 C 6.25 -35.789062 6.082031 -36.867188 5.75 -37.578125 C 5.414062 -38.285156 4.851562 -38.765625 4.0625 -39.015625 C 3.28125 -39.273438 2.125 -39.425781 0.59375 -39.46875 L 0.59375 -40.53125 L 21.125 -40.53125 Z M 21.125 -39.46875 "/></g></g></g><g fill="#ffffff" fill-opacity="1"><g transform="translate(92.196746, 198.563737)"><g><path d="M 7.5 -8.078125 L 21.1875 -41.1875 L 21.765625 -41.1875 L 35.40625 -7.96875 C 36.300781 -5.726562 37.191406 -4.015625 38.078125 -2.828125 C 38.960938 -1.648438 40.113281 -1.0625 41.53125 -1.0625 L 41.53125 0 L 22.59375 0 L 22.59375 -1.0625 C 24.476562 -1.101562 25.734375 -1.25 26.359375 -1.5 C 26.992188 -1.757812 27.3125 -2.34375 27.3125 -3.25 C 27.3125 -3.519531 27.242188 -3.832031 27.109375 -4.1875 C 26.972656 -4.539062 26.863281 -4.835938 26.78125 -5.078125 L 24.25 -11.453125 L 11.265625 -11.453125 L 9.4375 -7.015625 C 8.882812 -5.921875 8.609375 -4.957031 8.609375 -4.125 C 8.609375 -2.90625 9.0625 -2.085938 9.96875 -1.671875 C 10.875 -1.265625 12.15625 -1.0625 13.8125 -1.0625 L 13.8125 0 L 0.828125 0 L 0.828125 -1.0625 C 2.160156 -1.175781 3.359375 -1.785156 4.421875 -2.890625 C 5.484375 -3.992188 6.507812 -5.722656 7.5 -8.078125 Z M 23.359375 -13.625 L 17.765625 -27.203125 L 12.15625 -13.625 Z M 23.359375 -13.625 "/></g></g></g><g fill="#ffffff" fill-opacity="1"><g transform="translate(133.550096, 198.563737)"><g><path d="M 36.21875 -30.625 C 36.21875 -28.257812 35.390625 -26.269531 33.734375 -24.65625 C 32.085938 -23.050781 29.734375 -21.953125 26.671875 -21.359375 L 26.671875 -21.234375 C 30.128906 -20.722656 32.867188 -19.539062 34.890625 -17.6875 C 36.921875 -15.84375 37.9375 -13.585938 37.9375 -10.921875 C 37.9375 -8.640625 37.253906 -6.671875 35.890625 -5.015625 C 34.535156 -3.359375 32.726562 -2.109375 30.46875 -1.265625 C 28.207031 -0.421875 25.757812 0 23.125 0 L 0.890625 0 L 0.890625 -1.0625 C 2.335938 -1.0625 3.4375 -1.171875 4.1875 -1.390625 C 4.9375 -1.609375 5.5 -2.066406 5.875 -2.765625 C 6.25 -3.472656 6.4375 -4.597656 6.4375 -6.140625 L 6.4375 -34.34375 C 6.4375 -35.757812 6.265625 -36.828125 5.921875 -37.546875 C 5.585938 -38.273438 5.054688 -38.765625 4.328125 -39.015625 C 3.609375 -39.273438 2.578125 -39.425781 1.234375 -39.46875 L 1.234375 -40.53125 L 22.296875 -40.53125 C 24.421875 -40.53125 26.546875 -40.210938 28.671875 -39.578125 C 30.796875 -38.953125 32.582031 -37.898438 34.03125 -36.421875 C 35.488281 -34.953125 36.21875 -33.019531 36.21875 -30.625 Z M 17.46875 -22.125 C 20.6875 -22.125 22.960938 -22.9375 24.296875 -24.5625 C 25.640625 -26.195312 26.3125 -28.097656 26.3125 -30.265625 C 26.3125 -32.273438 25.722656 -34.125 24.546875 -35.8125 C 23.367188 -37.5 21.398438 -38.34375 18.640625 -38.34375 L 15.875 -38.34375 L 15.875 -22.125 Z M 19.296875 -2.0625 C 21.734375 -2.0625 23.695312 -2.828125 25.1875 -4.359375 C 26.6875 -5.898438 27.4375 -7.945312 27.4375 -10.5 C 27.4375 -13.175781 26.609375 -15.414062 24.953125 -17.21875 C 23.304688 -19.03125 20.710938 -19.9375 17.171875 -19.9375 L 15.875 -19.9375 L 15.875 -6.015625 C 15.875 -4.441406 16.144531 -3.390625 16.6875 -2.859375 C 17.238281 -2.328125 18.109375 -2.0625 19.296875 -2.0625 Z M 19.296875 -2.0625 "/></g></g></g><g fill="#ffffff" fill-opacity="1"><g transform="translate(171.835861, 198.563737)"><g><path d="M 35.21875 -28.96875 L 34.15625 -28.96875 C 33.601562 -32.039062 32.5 -34.367188 30.84375 -35.953125 C 29.195312 -37.546875 27.035156 -38.34375 24.359375 -38.34375 L 16.40625 -38.34375 L 16.40625 -21.765625 L 17.640625 -21.765625 C 19.140625 -21.765625 20.367188 -22 21.328125 -22.46875 C 22.296875 -22.945312 23.113281 -23.863281 23.78125 -25.21875 C 24.445312 -26.582031 24.9375 -28.519531 25.25 -31.03125 L 26.3125 -31.03125 L 26.3125 -10.4375 L 25.25 -10.4375 C 24.820312 -14.019531 23.988281 -16.441406 22.75 -17.703125 C 21.507812 -18.960938 19.882812 -19.59375 17.875 -19.59375 L 16.40625 -19.59375 L 16.40625 -6.546875 C 16.40625 -4.859375 16.660156 -3.707031 17.171875 -3.09375 C 17.679688 -2.488281 18.664062 -2.1875 20.125 -2.1875 L 24.359375 -2.1875 C 27.828125 -2.1875 30.539062 -3.117188 32.5 -4.984375 C 34.46875 -6.847656 35.96875 -9.359375 37 -12.515625 L 38.0625 -12.515625 L 36.21875 0 L 1.0625 0 L 1.0625 -1.0625 L 2.421875 -1.0625 C 3.796875 -1.0625 4.804688 -1.265625 5.453125 -1.671875 C 6.109375 -2.085938 6.523438 -2.628906 6.703125 -3.296875 C 6.878906 -3.972656 6.96875 -4.878906 6.96875 -6.015625 L 6.96875 -34.640625 C 6.96875 -36.566406 6.523438 -37.84375 5.640625 -38.46875 C 4.753906 -39.09375 3.226562 -39.425781 1.0625 -39.46875 L 1.0625 -40.53125 L 35.21875 -40.53125 Z M 35.21875 -28.96875 "/></g></g></g><g fill="#ffffff" fill-opacity="1"><g transform="translate(210.12162, 198.563737)"><g><path d="M 36.640625 -29.328125 C 36.640625 -26.847656 35.84375 -24.710938 34.25 -22.921875 C 32.65625 -21.128906 30.5 -19.898438 27.78125 -19.234375 L 35.75 -6.1875 C 36.769531 -4.5 37.722656 -3.234375 38.609375 -2.390625 C 39.492188 -1.546875 40.390625 -1.101562 41.296875 -1.0625 L 41.296875 0 L 29.328125 0 L 18.046875 -18.46875 L 16.21875 -18.46875 L 16.21875 -6.140625 C 16.21875 -4.597656 16.425781 -3.472656 16.84375 -2.765625 C 17.257812 -2.066406 17.859375 -1.617188 18.640625 -1.421875 C 19.429688 -1.222656 20.613281 -1.101562 22.1875 -1.0625 L 22.1875 0 L 1.125 0 L 1.125 -1.0625 C 2.613281 -1.101562 3.738281 -1.226562 4.5 -1.4375 C 5.269531 -1.65625 5.84375 -2.128906 6.21875 -2.859375 C 6.59375 -3.585938 6.78125 -4.679688 6.78125 -6.140625 L 6.78125 -34.921875 C 6.78125 -36.691406 6.335938 -37.890625 5.453125 -38.515625 C 4.566406 -39.148438 3.125 -39.46875 1.125 -39.46875 L 1.125 -40.53125 L 21.953125 -40.53125 C 26.316406 -40.53125 29.851562 -39.546875 32.5625 -37.578125 C 35.28125 -35.617188 36.640625 -32.867188 36.640625 -29.328125 Z M 19.40625 -20.65625 C 21.375 -20.65625 23.144531 -21.269531 24.71875 -22.5 C 26.289062 -23.738281 27.078125 -26.070312 27.078125 -29.5 C 27.078125 -35.394531 24.226562 -38.34375 18.53125 -38.34375 L 16.21875 -38.34375 L 16.21875 -20.65625 Z M 19.40625 -20.65625 "/></g></g></g></svg>